<svg xmlns="http://www.w3.org/2000/svg" width="64" height="64" viewBox="0 0 64 64" fill="none"><metadata><rdf:RDF xmlns:rdf="http://www.w3.org/1999/02/22-rdf-syntax-ns#" xmlns:dc="http://purl.org/dc/elements/1.1/"><rdf:Description><dc:creator>RealFaviconGenerator</dc:creator><dc:source>https://realfavicongenerator.net</dc:source></rdf:Description></rdf:RDF></metadata><rect width="64" height="64" rx="10.5936" fill="#2667FF"></rect><path d="M22.7634 48.5255C20.3381 48.5255 18.3721 46.5594 18.3721 44.1341C18.3721 43.1069 18.7322 42.1121 19.3899 41.3229L31.6879 26.5653C32.6047 25.4739 33.5506 24.3897 34.5257 23.3128C35.1714 22.5996 35.8267 21.8832 36.4916 21.1636C36.9543 20.6628 37.7827 20.8399 38.0031 21.4851C38.2032 22.0709 37.7678 22.6797 37.1488 22.6797C36.1289 22.6797 35.109 22.6797 34.0891 22.6797C32.6483 22.6797 31.2076 22.6797 29.7669 22.6797H22.1049C20.2603 22.6797 18.765 21.1844 18.765 19.3399C18.765 17.4953 20.2603 16 22.1049 16H40.2956C42.727 16 44.698 17.971 44.698 20.4025C44.698 21.4231 44.3434 22.4121 43.6948 23.2002L31.6005 37.8947C30.6692 38.9861 29.716 40.0849 28.7409 41.1909C28.1003 41.908 27.4534 42.6283 26.8002 43.3517C26.3396 43.8617 25.5012 43.6873 25.2806 43.0364C25.0826 42.4519 25.5172 41.8457 26.1343 41.8457C27.1451 41.8457 28.1595 41.8457 29.1775 41.8457C30.6182 41.8457 32.059 41.8457 33.4997 41.8457H41.511C43.3555 41.8457 44.8509 43.341 44.8509 45.1856C44.8509 47.0302 43.3555 48.5255 41.511 48.5255H22.7634Z" fill="white"></path></svg>