<svg width="16" height="20" viewBox="0 0 16 20" fill="none" xmlns="http://www.w3.org/2000/svg">
<g clip-path="url(#clip0_515_9134)">
<path d="M13.364 10.4366C13.3916 13.4095 15.972 14.3988 16.0006 14.4114C15.9787 14.4812 15.5883 15.8213 14.6412 17.2054C13.8224 18.4022 12.9725 19.5945 11.6338 19.6192C10.3186 19.6434 9.89556 18.8392 8.39171 18.8392C6.8883 18.8392 6.41836 19.5945 5.1732 19.6434C3.88105 19.6923 2.89706 18.3494 2.07153 17.157C0.384485 14.7181 -0.904732 10.2651 0.826366 7.2593C1.68632 5.76658 3.22322 4.82139 4.89127 4.79715C6.16012 4.77297 7.3578 5.65079 8.13347 5.65079C8.90863 5.65079 10.3641 4.59514 11.8941 4.75016C12.5345 4.77684 14.3326 5.00884 15.4871 6.69876C15.394 6.75644 13.3417 7.95118 13.364 10.4366M10.892 3.1366C11.578 2.30619 12.0397 1.15025 11.9138 0C10.9249 0.0397393 9.72923 0.658948 9.01992 1.48885C8.38427 2.22384 7.82761 3.40015 7.97782 4.5276C9.08002 4.61289 10.2059 3.9675 10.892 3.1366Z" fill="black"/>
</g>
<defs>
<clipPath id="clip0_515_9134">
<rect width="16" height="19.6822" fill="white"/>
</clipPath>
</defs>
</svg>
